# xmcd
#
# Track frame offsets: 
#        150
#        9962
#        22170
#        34457
#        55887
#        64743
#        76403
#        87373
#        97665
#        112757
#        126879
#        139860
#        149759
#        161392
#        172302
#        182683
#        198224
#        214204
#        230770
#
# Disc length: 3267 seconds
#
# Revision: 0
# Processed by: cddbd v1.5.2PL0 Copyright (c) Steve Scherf et al.
# Submitted via: ExactAudioCopy v0.99pb5
#
DISCID=0c0cc113
DTITLE=Anblaggd - Handgschabd
DYEAR=2007
DGENRE=Blues
TTITLE0=Singing The Blues
TTITLE1=Sorry Suzanne
TTITLE2=Things We Said Today
TTITLE3=Where Do You Go To My Lovely
TTITLE4=All My Loving
TTITLE5=Meet Me On The Corner
TTITLE6=Nowhere Man
TTITLE7=I´ll Be Back
TTITLE8=Ferry Cross The Mersey
TTITLE9=Woman
TTITLE10=We Can Work It Out
TTITLE11=No Reply
TTITLE12=Day Dream Believer
TTITLE13=Here, There and Everythere
TTITLE14=Yesterday
TTITLE15=Into The Great White Open
TTITLE16=Let It Be
TTITLE17=While My Guitar Gently Wheeps
TTITLE18=Happy Xmas
EXTD=
EXTT0=
EXTT1=
EXTT2=
EXTT3=
EXTT4=
EXTT5=
EXTT6=
EXTT7=
EXTT8=
EXTT9=
EXTT10=
EXTT11=
EXTT12=
EXTT13=
EXTT14=
EXTT15=
EXTT16=
EXTT17=
EXTT18=
PLAYORDER=
